<?xml version="1.0" encoding="UTF-8"?>
<svg width="207px" height="256px" viewBox="0 0 207 256" version="1.1" xmlns="http://www.w3.org/2000/svg" xmlns:xlink="http://www.w3.org/1999/xlink">
    <!-- Generator: sketchtool 53 (72520) - https://sketchapp.com -->
    <title>E46E77E7-495C-46DA-A69B-9D9A75D3485A@2x</title>
    <desc>Created with sketchtool.</desc>
    <defs>
        <polygon id="path-1" points="0.364650363 0.474827835 7.36058432 0.474827835 7.36058432 8.7849 0.364650363 8.7849"></polygon>
        <polygon id="path-3" points="0.415088787 0.308907216 88.8602525 0.308907216 88.8602525 73.2353768 0.415088787 73.2353768"></polygon>
    </defs>
    <g id="1-Register" stroke="none" stroke-width="1" fill="none" fill-rule="evenodd">
        <g id="1.0-Register" transform="translate(-110.000000, -644.000000)">
            <g id="Group-99" transform="translate(110.000000, 644.000000)">
                <path d="M97.7160299,216.580074 C100.604036,224.771116 81.136387,238.98553 54.229365,248.33142 C27.3246891,257.674982 3.17194767,258.610968 0.283941384,250.419926 C-2.6040649,242.228884 16.8659304,228.01447 43.7706063,218.66858 C70.6776283,209.325018 94.8303697,208.389032 97.7160299,216.580074" id="Fill-1" fill="#242993" opacity="0.300000012"></path>
                <polygon id="Fill-3" fill="#DD821F" points="30 186 30.3789474 177.800209 32.5894737 173 34 176.972978"></polygon>
                <g id="Group-98" transform="translate(30.000000, 0.000000)">
                    <path d="M88.5708798,187.122887 L88.9038641,178.810474 C88.9038641,178.810474 81.9111926,185.824072 81.9065355,185.994907 C81.9042069,186.165742 88.5708798,187.122887 88.5708798,187.122887" id="Fill-4" fill="#FFD85A"></path>
                    <path d="M43.7460623,211.768066 C19.3287617,211.180674 -0.049530875,198.702695 0.467409878,177.037066 C0.98435063,155.371437 21.1962683,138.287932 45.6158975,138.875324 C70.0331981,139.462715 89.4091621,157.503365 88.8945499,179.164313 C88.3776091,200.829942 68.1633629,212.355458 43.7460623,211.768066" id="Fill-6" fill="#FFD85A"></path>
                    <path d="M43.4119136,225.797836 C18.994613,225.208104 -0.383679515,207.169795 0.133261238,185.504166 C0.650201991,163.840877 20.8621197,146.755032 45.2817489,147.342424 C69.6990495,147.932156 89.0750134,165.970465 88.5604013,187.633754 C88.0434605,209.297042 67.8292142,226.385228 43.4119136,225.797836" id="Fill-8" fill="#FFD85A"></path>
                    <path d="M13.4884954,158.306758 C5.46892809,165.196325 0.388005915,174.78883 0.134192663,185.504634 C-0.38274809,207.170263 18.9932159,225.208572 43.412845,225.798304 C55.4910959,226.08849 66.5354652,222.049294 74.6807749,215.276737 L13.4884954,158.306758 Z" id="Fill-10" fill="#DD821F"></path>
                    <path d="M43.4528963,224.047362 C20.1230341,223.485712 1.61096665,206.252434 2.10462178,185.55331 C2.59827692,164.854187 21.9113697,148.531248 45.2412319,149.092898 C68.5687655,149.654547 87.080833,166.887826 86.5871779,187.586949 C86.0935227,208.286073 66.7827585,224.606671 43.4528963,224.047362" id="Fill-12" fill="#F9BF30"></path>
                    <path d="M43.6300999,216.656523 C24.9014761,216.204863 10.0405938,202.371904 10.4364493,185.7541 C10.8323048,169.136296 26.3335417,156.033481 45.0621655,156.482801 C63.7907892,156.934461 78.6516716,170.76976 78.2558161,187.385224 C77.8599605,204.003028 62.3587236,217.105842 43.6300999,216.656523" id="Fill-14" fill="#F2B42A"></path>
                    <path d="M78.2560489,187.385692 C78.2723488,186.697671 78.2537204,186.016671 78.2164634,185.338011 C76.6563269,200.970589 61.6790164,212.994568 43.7281323,212.56397 C25.7749197,212.128692 11.3844069,199.39797 10.5717387,183.709228 C10.5042104,184.385547 10.4529821,185.066547 10.4366821,185.754568 C10.0408266,202.370032 24.901709,216.202991 43.6303327,216.656991 C62.3589565,217.10631 77.8601934,204.003496 78.2560489,187.385692" id="Fill-16" fill="#FFD85A"></path>
                    <path d="M50.8523676,189.106445 L43.8969531,182.631095 C37.2000089,184.159249 24.7165883,187.016641 14.7433575,189.368548 C17.2256045,196.866569 23.2682228,203.051734 31.1690335,206.335043 L50.8523676,189.106445 Z" id="Fill-18" fill="#FFD85A"></path>
                    <path d="M39.9076607,208.630318 C41.0137277,208.766049 42.1360945,208.852637 43.2747613,208.878379 C51.4619851,209.077297 58.957626,206.379039 64.5322034,201.84372 L53.1781353,191.273008 L39.9076607,208.630318 Z" id="Fill-20" fill="#FFD85A"></path>
                    <path d="M36.4376377,175.686767 L23.3348196,163.487272 C18.9268519,167.355633 14.9892536,171.621829 13.9251008,177.320231 L36.4376377,175.686767 Z" id="Fill-22" fill="#FFD85A"></path>
                    <path d="M43.2889656,160.082506 C62.0175893,160.531826 76.8784717,174.367125 76.4826161,190.982589 C76.403445,194.352486 75.6932336,197.570269 74.4707386,200.565733 C76.7853292,196.615465 78.1428808,192.145671 78.2569803,187.385692 C78.6528359,170.767888 63.7919535,156.934929 45.0633298,156.483269 C30.1325905,156.125218 17.255643,164.388486 12.4494911,176.171424 C18.2103534,166.342558 29.9276771,159.759558 43.2889656,160.082506" id="Fill-24" fill="#DD821F"></path>
                    <path d="M0.467642734,177.037534 C0.39080019,180.262338 0.0927442601,182.593184 0.847198332,185.612049 C1.82053723,182.43639 3.93254291,172.925792 3.93254291,172.925792 L7.29964349,165.371606 L10.1032321,163.047781 L14.8488413,159.572575 L15.2423683,148.674235 C6.4054757,155.629328 0.73775592,165.703915 0.467642734,177.037534" id="Fill-26" fill="#DD821F"></path>
                    <path d="M86.0399658,175.926872 L86.2239222,173.694315 C86.2309079,173.373707 86.480064,173.120965 86.7781199,173.127986 L86.948105,173.132666 C87.2461609,173.139687 87.4813456,173.40413 87.4720314,173.724738 L87.288075,175.957295 C87.2810893,176.275563 87.0319332,176.530645 86.7338773,176.523625 L86.5685494,176.518944 C86.2681649,176.511924 86.0306515,176.24748 86.0399658,175.926872" id="Fill-28" fill="#DD821F"></path>
                    <path d="M82.1538288,167.370376 L82.3820278,163.356923 C82.3913421,162.994191 82.6730981,162.704005 83.0130681,162.713366 L83.401938,162.722727 C83.741908,162.729747 84.0120212,163.031634 84.0027069,163.396706 L83.7745079,167.41016 C83.7651936,167.775232 83.4811091,168.063077 83.1434676,168.056057 L82.7545977,168.046696 C82.4122991,168.037335 82.1445145,167.735448 82.1538288,167.370376" id="Fill-30" fill="#DD821F"></path>
                    <path d="M76.7690293,159.910969 L76.9948998,156.019206 C77.004214,155.60733 77.323227,155.279701 77.7074397,155.289062 L78.3850512,155.305443 C78.769264,155.314804 79.071977,155.656474 79.0626628,156.068351 L78.8391208,159.960113 C78.8298066,160.37199 78.508465,160.699619 78.1242523,160.687918 L77.4466408,160.671536 C77.0624281,160.662175 76.7573864,160.322845 76.7690293,159.910969" id="Fill-32" fill="#DD821F"></path>
                    <path d="M68.7077806,153.88447 L68.9499511,149.168955 C68.9615939,148.759419 69.2806069,148.43179 69.6648196,148.441151 L70.3424311,148.457532 C70.7266439,148.466893 71.0316855,148.806223 71.0223712,149.220439 L70.7778722,153.933614 C70.768558,154.345491 70.4472164,154.67312 70.0630037,154.663759 L69.3853922,154.647377 C69.0011794,154.638016 68.6961378,154.298687 68.7077806,153.88447" id="Fill-34" fill="#DD821F"></path>
                    <path d="M60.5941394,149.928586 L60.8572669,144.496967 C60.8665811,144.082751 61.1879227,143.755122 61.5721354,143.764482 L62.2497469,143.783204 C62.6339597,143.792565 62.9366727,144.131895 62.9273585,144.543771 L62.6665595,149.97773 C62.6549167,150.389606 62.3359037,150.717235 61.951691,150.707874 L61.2740795,150.691493 C60.8898668,150.682132 60.5848251,150.340462 60.5941394,149.928586" id="Fill-36" fill="#DD821F"></path>
                    <path d="M52.4465011,147.515365 L52.7026429,142.294365 C52.7119572,141.882489 53.0332987,141.55486 53.4175115,141.564221 L54.095123,141.580602 C54.4793357,141.589963 54.7843773,141.931633 54.7750631,142.343509 L54.5189213,147.564509 C54.5072785,147.976386 54.1882655,148.304014 53.8040527,148.294654 L53.1264412,148.278272 C52.7422285,148.268911 52.4371869,147.927241 52.4465011,147.515365" id="Fill-38" fill="#DD821F"></path>
                    <path d="M44.2599759,146.690208 L44.5184463,141.389641 C44.5300891,140.980105 44.8491021,140.652476 45.2356433,140.661837 L45.9109263,140.678219 C46.295139,140.687579 46.6001806,141.026909 46.5908664,141.441126 L46.332396,146.739353 C46.3230818,147.153569 46.0017402,147.481198 45.6175275,147.471837 L44.939916,147.453115 C44.5557033,147.443755 44.2506616,147.104425 44.2599759,146.690208" id="Fill-40" fill="#DD821F"></path>
                    <path d="M36.0508636,146.866192 L36.3023483,141.900274 C36.3116625,141.486058 36.6306755,141.160769 37.0172168,141.16779 L37.6924998,141.186511 C38.0767125,141.195872 38.3817541,141.537542 38.3724399,141.947078 L38.1209552,146.915336 C38.1116409,147.329553 37.7902994,147.654841 37.4060866,147.64548 L36.7308037,147.629099 C36.3442624,147.619738 36.0415493,147.280408 36.0508636,146.866192" id="Fill-42" fill="#DD821F"></path>
                    <path d="M27.8030972,148.674001 L28.0475962,143.860197 C28.059239,143.450661 28.378252,143.123032 28.7647933,143.132393 L29.4400762,143.151114 C29.8242889,143.160475 30.1293306,143.499805 30.1200163,143.911681 L29.8731887,148.723145 C29.8638745,149.135022 29.5425329,149.46031 29.1583202,149.450949 L28.4807087,149.434568 C28.096496,149.425207 27.7914544,149.085877 27.8030972,148.674001" id="Fill-44" fill="#DD821F"></path>
                    <path d="M19.5008424,152.723494 L19.7569842,147.514195 C19.7662985,147.104659 20.08764,146.77703 20.4718527,146.786391 L21.1471357,146.802772 C21.533677,146.812133 21.83639,147.153803 21.8270758,147.565679 L21.570934,152.772638 C21.5616197,153.184514 21.2402782,153.512143 20.8560654,153.500442 L20.1784539,153.484061 C19.7942412,153.4747 19.4915281,153.13537 19.5008424,152.723494" id="Fill-46" fill="#DD821F"></path>
                    <path d="M154.889488,76.9092381 C157.755948,85.1420835 138.433541,99.4290423 111.727264,108.82029 C85.0233157,118.211537 61.0507704,119.15464 58.1843106,110.919455 C55.3178509,102.688949 74.6425865,88.3996505 101.346535,79.0084031 C128.052812,69.6171557 152.025357,68.6740526 154.889488,76.9092381" id="Fill-48" fill="#242993" opacity="0.200000003"></path>
                    <polygon id="Fill-50" fill="#DD821F" points="87.2771308 46.9527268 87.6124437 38.4858608 89.5684357 33.5269639 90.8142164 37.6316856"></polygon>
                    <g id="Group-54" transform="translate(168.685752, 39.783505)">
                        <mask id="mask-2" fill="white">
                            <use xlink:href="#path-1"></use>
                        </mask>
                        <g id="Clip-53"></g>
                        <path d="M7.0289971,8.7849 L7.36198146,0.474827835 C7.36198146,0.474827835 0.369309925,7.48842577 0.364652801,7.65926082 C0.359995677,7.83009588 7.0289971,8.7849 7.0289971,8.7849" id="Fill-52" fill="#FFD85A" mask="url(#mask-2)"></path>
                    </g>
                    <g id="Group-57" transform="translate(87.186084, 0.000000)">
                        <mask id="mask-4" fill="white">
                            <use xlink:href="#path-3"></use>
                        </mask>
                        <g id="Clip-56"></g>
                        <path d="M43.7038478,73.2138186 C19.2865472,72.6264268 -0.0917453408,60.1507876 0.425195412,38.4851588 C0.942136165,16.8195299 21.1540539,-0.263975258 45.573683,0.323416495 C69.9909836,0.910808247 89.3669476,18.9491175 88.8523354,40.6124062 C88.3353947,62.2780351 68.1211484,73.8035505 43.7038478,73.2138186" id="Fill-55" fill="#FFD85A" mask="url(#mask-4)"></path>
                    </g>
                    <path d="M130.55555,87.2435887 C106.13825,86.6561969 86.7599572,68.6178876 87.2768979,46.9522588 C87.7938387,25.2866299 108.005756,8.20312474 132.425386,8.79051649 C156.842686,9.37790825 176.21865,27.4185577 175.704038,49.0795062 C175.187097,70.7451351 154.972851,87.8333206 130.55555,87.2435887" id="Fill-58" fill="#FFD85A"></path>
                    <path d="M100.632132,19.7522763 C92.6125648,26.6441835 87.5316426,36.2366887 87.2778293,46.9524928 C86.7608886,68.6181216 106.136853,86.6564309 130.556482,87.2438227 C142.634733,87.5363485 153.679102,83.4948124 161.824412,76.7222557 L100.632132,19.7522763 Z" id="Fill-60" fill="#DD821F"></path>
                    <path d="M130.596533,85.4952206 C107.266671,84.9335711 88.7546033,67.7002928 89.2482585,47.0011691 C89.7419136,26.3020454 109.052678,9.97676701 132.384869,10.5407567 C155.712402,11.1024062 174.222141,28.3356845 173.728486,49.0348082 C173.237159,69.7315918 153.926395,86.0545299 130.596533,85.4952206" id="Fill-62" fill="#F9BF30"></path>
                    <path d="M130.773969,78.1020412 C112.045346,77.6527216 97.1844633,63.8174227 97.5803188,47.2019588 C97.9761743,30.5841546 113.477411,17.4813402 132.206035,17.9306598 C150.934659,18.3799794 165.795541,32.2176186 165.399686,48.8330825 C165.00383,65.4485464 149.500265,78.553701 130.773969,78.1020412" id="Fill-64" fill="#F2B42A"></path>
                    <path d="M165.399918,48.8335505 C165.416218,48.1455299 165.39759,47.4621897 165.360333,46.7835299 C163.800196,62.4161072 148.822886,74.4400866 130.872002,74.0094887 C112.918789,73.5765505 98.5282764,60.8458289 97.7156083,45.1570866 C97.64808,45.8334062 97.5968516,46.512066 97.5805517,47.2024268 C97.1846961,63.8155505 112.045579,77.6508495 130.774202,78.1025093 C149.500497,78.5541691 165.004063,65.4513546 165.399918,48.8335505" id="Fill-66" fill="#FFD85A"></path>
                    <path d="M137.996004,50.5543041 L131.04059,44.0766134 C124.343646,45.604768 111.857896,48.4621598 101.886994,50.8164072 C104.366913,58.3144278 110.411859,64.4995928 118.31267,67.7829021 L137.996004,50.5543041 Z" id="Fill-68" fill="#FFD85A"></path>
                    <path d="M127.048969,70.0781763 C128.157364,70.2139082 129.277403,70.3004959 130.418398,70.3262381 C138.605622,70.5228155 146.098934,67.8268979 151.67584,63.2915784 L140.321772,52.720867 L127.048969,70.0781763 Z" id="Fill-70" fill="#FFD85A"></path>
                    <path d="M123.578946,37.1325196 L110.478456,24.9353649 C106.070489,28.8037258 102.13289,33.0699216 101.068737,38.7683237 L123.578946,37.1325196 Z" id="Fill-72" fill="#FFD85A"></path>
                    <path d="M130.432835,21.5280247 C149.161459,21.9796845 164.022341,35.8126433 163.626486,52.4304474 C163.547315,55.8003443 162.834775,59.0181278 161.614608,62.0135918 C163.929199,58.0633237 165.28675,53.5935299 165.40085,48.8335505 C165.796705,32.2157464 150.935823,18.3804474 132.207199,17.9311278 C117.274132,17.5730763 104.399512,25.8340041 99.5933606,37.6192825 C105.354223,27.7880763 117.071547,21.2074165 130.432835,21.5280247" id="Fill-74" fill="#DD821F"></path>
                    <path d="M87.6112794,38.4853928 C87.5344369,41.7078567 87.2340524,44.0410423 87.990835,47.057568 C88.9641739,43.8819082 91.0761796,34.3736505 91.0761796,34.3736505 L94.4432802,26.8194649 L97.2468687,24.4956402 L101.992478,21.020434 L102.386005,10.1220938 C93.5491124,17.0771866 87.8813926,27.149434 87.6112794,38.4853928" id="Fill-76" fill="#DD821F"></path>
                    <path d="M173.181507,37.3747309 L173.367792,35.1421742 C173.374777,34.821566 173.623934,34.5688237 173.921989,34.5758443 L174.089646,34.5805247 C174.39003,34.5875454 174.625215,34.8519887 174.615901,35.1725969 L174.431945,37.4051536 C174.424959,37.7234216 174.175803,37.9785041 173.877747,37.9714835 L173.71009,37.9668031 C173.412034,37.9597825 173.174521,37.6953392 173.181507,37.3747309" id="Fill-78" fill="#DD821F"></path>
                    <path d="M169.297465,28.8184691 L169.525664,24.8050155 C169.534979,24.4399433 169.816735,24.1520979 170.156705,24.1591186 L170.545575,24.1708196 C170.885545,24.1778402 171.155658,24.4797268 171.146344,24.844799 L170.915816,28.8582526 C170.90883,29.2233247 170.624746,29.5111701 170.284776,29.5018093 L169.898234,29.4924485 C169.555936,29.4854278 169.288151,29.1835412 169.297465,28.8184691" id="Fill-80" fill="#DD821F"></path>
                    <path d="M163.912666,21.3567216 L164.138536,17.467299 C164.147851,17.0530825 164.466864,16.7254536 164.851076,16.7348144 L165.528688,16.7535361 C165.912901,16.7628969 166.215614,17.104567 166.206299,17.5141031 L165.982757,21.405866 C165.973443,21.8177423 165.652102,22.1453711 165.267889,22.1360103 L164.590277,22.1196289 C164.206065,22.110268 163.901023,21.7709381 163.912666,21.3567216" id="Fill-82" fill="#DD821F"></path>
                    <path d="M155.849089,15.3325629 L156.093588,10.6170474 C156.102902,10.2051711 156.424244,9.87754227 156.808456,9.8892433 L157.486068,9.90562474 C157.870281,9.91498557 158.175322,10.2543155 158.163679,10.6661918 L157.921509,15.3817072 C157.909866,15.7935835 157.590853,16.1212124 157.20664,16.1118515 L156.529029,16.0954701 C156.144816,16.0861093 155.839774,15.7444392 155.849089,15.3325629" id="Fill-84" fill="#DD821F"></path>
                    <path d="M147.737776,11.3764443 L148.000904,5.94248557 C148.010218,5.53060928 148.329231,5.20298041 148.715772,5.21234124 L149.391055,5.22872268 C149.775268,5.23808351 150.080309,5.57975361 150.070995,5.9916299 L149.810196,11.4255887 C149.798553,11.8374649 149.47954,12.1650938 149.092999,12.155733 L148.417716,12.1393515 C148.033503,12.1299907 147.728462,11.7883206 147.737776,11.3764443" id="Fill-86" fill="#DD821F"></path>
                    <path d="M139.590138,8.96322371 L139.84628,3.74222371 C139.855594,3.33034742 140.176935,3.00271856 140.561148,3.01207938 L141.23876,3.02846082 C141.622972,3.03782165 141.928014,3.37949175 141.916371,3.79136804 L141.662558,9.01236804 C141.650915,9.42424433 141.329574,9.7518732 140.945361,9.74251237 L140.270078,9.72379072 C139.883537,9.7144299 139.580824,9.3751 139.590138,8.96322371" id="Fill-88" fill="#DD821F"></path>
                    <path d="M131.403845,8.13806701 L131.662316,2.8375 C131.67163,2.42562371 131.992972,2.09799485 132.377184,2.10969588 L133.054796,2.12607732 C133.439009,2.13543814 133.74405,2.47476804 133.732407,2.88664433 L133.476266,8.18721134 C133.464623,8.59908763 133.14561,8.92671649 132.761397,8.91735567 L132.083785,8.90097423 C131.699573,8.8916134 131.394531,8.55228351 131.403845,8.13806701" id="Fill-90" fill="#DD821F"></path>
                    <path d="M123.194733,8.31405052 L123.443889,3.34579278 C123.455532,2.93391649 123.774545,2.60862784 124.158758,2.61564845 L124.836369,2.6320299 C125.220582,2.64139072 125.525624,2.98540103 125.516309,3.39493711 L125.264825,8.36319485 C125.25551,8.77507113 124.934169,9.1027 124.549956,9.09333918 L123.874673,9.07695773 C123.488132,9.06759691 123.185419,8.72826701 123.194733,8.31405052" id="Fill-92" fill="#DD821F"></path>
                    <path d="M114.946967,10.1195196 L115.191466,5.30805567 C115.20078,4.89851959 115.522121,4.57089072 115.906334,4.58025155 L116.583946,4.59663299 C116.968158,4.60599381 117.2732,4.94766392 117.261557,5.35954021 L117.017058,10.1686639 C117.007744,10.5805402 116.686402,10.9081691 116.30219,10.8988082 L115.624578,10.8824268 C115.240365,10.873066 114.935324,10.5337361 114.946967,10.1195196" id="Fill-94" fill="#DD821F"></path>
                    <path d="M106.644479,14.1692464 L106.900621,8.96228763 C106.909935,8.55275155 107.228948,8.22512268 107.615489,8.23448351 L108.290772,8.25086495 C108.674985,8.26022577 108.980027,8.59955567 108.970712,9.01377216 L108.714571,14.2183907 C108.705256,14.630267 108.383915,14.9578959 107.999702,14.9485351 L107.322091,14.9321536 C106.937878,14.9227928 106.632836,14.5834629 106.644479,14.1692464" id="Fill-96" fill="#DD821F"></path>
                </g>
            </g>
        </g>
    </g>
</svg>