<?xml version="1.0" encoding="UTF-8"?>
<svg width="20px" height="16px" viewBox="0 0 20 16" version="1.1" xmlns="http://www.w3.org/2000/svg" xmlns:xlink="http://www.w3.org/1999/xlink">
    <!-- Generator: sketchtool 53 (72520) - https://sketchapp.com -->
    <title>62DB381F-9A54-461F-807C-138AB144ECB6@2x</title>
    <desc>Created with sketchtool.</desc>
    <g id="1-Register" stroke="none" stroke-width="1" fill="none" fill-rule="evenodd">
        <g id="1.3-Select-OVD" transform="translate(-1053.000000, -397.000000)" fill="#637A89">
            <g id="signup_form" transform="translate(975.000000, 164.000000)">
                <g id="ovd_item" transform="translate(60.000000, 214.000000)">
                    <g id="ico_passport" transform="translate(18.000000, 19.000000)">
                        <g id="presentation-card-with-picture">
                            <g id="Group" transform="translate(2.000000, 4.000000)">
                                <path d="M14.8325792,3.06081081 L10.4072398,3.06081081 C10.1573756,3.06081081 9.95475113,3.25743581 9.95475113,3.5 C9.95475113,3.74256419 10.1573756,3.93918919 10.4072398,3.93918919 L14.8325792,3.93918919 C15.0824434,3.93918919 15.2850679,3.74256419 15.2850679,3.5 C15.2850679,3.25743581 15.0824434,3.06081081 14.8325792,3.06081081 Z" id="Path"></path>
                                <path d="M14.8325792,8.06081081 L1.40723982,8.06081081 C1.15737557,8.06081081 0.954751131,8.25743581 0.954751131,8.5 C0.954751131,8.74256419 1.15737557,8.93918919 1.40723982,8.93918919 L14.8325792,8.93918919 C15.0824434,8.93918919 15.2850679,8.74256419 15.2850679,8.5 C15.2850679,8.25743581 15.0824434,8.06081081 14.8325792,8.06081081 Z" id="Path-Copy-2"></path>
                                <path d="M14.8325792,5.06081081 L10.4072398,5.06081081 C10.1573756,5.06081081 9.95475113,5.25743581 9.95475113,5.5 C9.95475113,5.74256419 10.1573756,5.93918919 10.4072398,5.93918919 L14.8325792,5.93918919 C15.0824434,5.93918919 15.2850679,5.74256419 15.2850679,5.5 C15.2850679,5.25743581 15.0824434,5.06081081 14.8325792,5.06081081 Z" id="Path-Copy"></path>
                                <path d="M10.4072398,1.74324324 L11.6199095,1.74324324 C11.8697738,1.74324324 12.0723982,1.54661824 12.0723982,1.30405405 C12.0723982,1.06148986 11.8697738,0.864864865 11.6199095,0.864864865 L10.4072398,0.864864865 C10.1573756,0.864864865 9.95475113,1.06148986 9.95475113,1.30405405 C9.95475113,1.54661824 10.1573756,1.74324324 10.4072398,1.74324324 Z" id="Path"></path>
                            </g>
                            <g id="Group-5" transform="translate(10.000000, 8.000000) rotate(-90.000000) translate(-10.000000, -8.000000) translate(2.000000, -2.000000)" fill-rule="nonzero">
                                <path d="M2.85714286,20 L13.1428571,20 C14.7183036,20 16,18.6857605 16,17.0703125 L16,2.9296875 C16,1.31423949 14.7183036,0 13.1428571,0 C9.81755954,0 6.14613097,0 2.85714286,0 C1.28169642,0 0,1.31423949 0,2.9296875 L0,17.0703125 C0,18.6857605 1.28169642,20 2.85714286,20 Z M1.14285714,2.9296875 C1.14285714,1.96044922 1.91190476,1.171875 2.85714286,1.171875 L13.1422141,1.171875 C14.0874522,1.171875 14.8564998,1.96044922 14.8564998,2.9296875 L14.8564998,17.0703125 C14.8564998,18.0395508 14.0874522,18.828125 13.1422141,18.828125 C12.781351,18.828125 5.04404762,18.828125 2.85714286,18.828125 C1.91190476,18.828125 1.14285714,18.0395508 1.14285714,17.0703125 L1.14285714,2.9296875 Z" id="Shape"></path>
                                <path d="M8.5,10 C10.4298991,10 12,8.4298991 12,6.5 C12,4.5701009 10.4298991,3 8.5,3 C6.5701009,3 5,4.5701009 5,6.5 C5,8.4298991 6.5701009,10 8.5,10 Z M5.91168618,6.9375 L6.76287434,6.9375 C6.80138347,7.60514323 6.92762045,8.22926431 7.12882486,8.73751628 C6.49570313,8.3480957 6.03974611,7.69777018 5.91168618,6.9375 L5.91168618,6.9375 Z M8.5,3.875 C8.77981771,3.875 9.27189128,4.6949707 9.36098632,6.0625 L7.63901368,6.0625 C7.72810872,4.6949707 8.22018229,3.875 8.5,3.875 Z M9.36098632,6.9375 C9.27189128,8.3050293 8.77981771,9.125 8.5,9.125 C8.22018229,9.125 7.72810872,8.3050293 7.63901368,6.9375 L9.36098632,6.9375 Z M9.87117514,8.73751628 C10.0723796,8.22926431 10.1986165,7.60480143 10.2371257,6.9371582 L11.0883138,6.9371582 C10.9602539,7.69754233 10.5042969,8.3480957 9.87117514,8.73751628 Z M11.0883138,6.0625 L10.2371257,6.0625 C10.1986165,5.39485677 10.0723796,4.77073569 9.87117514,4.26248372 C10.5042969,4.6519043 10.9602539,5.30222982 11.0883138,6.0625 Z M7.12882486,4.26248372 C6.92762045,4.77073569 6.80138347,5.39485677 6.76287434,6.0625 L5.91168618,6.0625 C6.03974611,5.30222982 6.49570313,4.6519043 7.12882486,4.26248372 Z" id="Shape" transform="translate(8.500000, 6.500000) rotate(-270.000000) translate(-8.500000, -6.500000) "></path>
                            </g>
                        </g>
                    </g>
                </g>
            </g>
        </g>
    </g>
</svg>