<?xml version="1.0" encoding="UTF-8"?>
<svg width="154px" height="59px" viewBox="0 0 154 59" version="1.1" xmlns="http://www.w3.org/2000/svg" xmlns:xlink="http://www.w3.org/1999/xlink">
    <!-- Generator: sketchtool 53.1 (72631) - https://sketchapp.com -->
    <title>F73FF4AA-81FD-48E4-934C-9B271B128342@2x</title>
    <desc>Created with sketchtool.</desc>
    <g id="1-Register" stroke="none" stroke-width="1" fill="none" fill-rule="evenodd">
        <g id="1.0-Register" transform="translate(-598.000000, -320.000000)" fill-rule="nonzero">
            <g id="Nadl-Logo" transform="translate(598.000000, 320.000000)">
                <path d="M43.9997903,42.986922 C42.4163777,42.986922 40.9243925,42.986922 39.432617,42.986922 C35.8537397,42.986922 32.2759108,42.9726889 28.6982917,42.9998806 C28.080528,43.0051914 27.6762346,42.8341813 27.2782321,42.3273114 C23.9979616,38.1529641 20.6853979,34.0028343 17.3816414,29.8463314 C17.206126,29.6256115 17.0239004,29.4087154 16.6948878,29.0072133 C16.6948878,33.7661817 16.6948878,38.3237618 16.6948878,42.9333884 C11.4032157,42.9333884 6.23400582,42.9333884 1,42.9333884 C1,28.6447992 1,14.3916866 1,0.069320246 C1.2514252,0.0510508377 1.49614014,0.0168488058 1.73854842,0.0168488058 C5.31721602,0.0134498462 8.89525454,0.0283202948 12.4732931,6.64423953e-05 C13.0199699,-0.00418225721 13.335562,0.195294189 13.660171,0.609754836 C18.2141335,6.42070129 22.7838232,12.2189016 27.3516256,18.0190139 C27.5770486,18.3051638 27.811069,18.5828164 28.1792947,19.0331785 C28.1792947,12.5925748 28.1792947,6.34868583 28.1792947,0.0601855418 C33.4422386,0.0601855418 38.6944879,0.0601855418 44,0.0601855418 C43.9997903,14.3638576 43.9997903,28.6188821 43.9997903,42.986922 Z" id="Path" fill="#422873"></path>
                <path d="M83,43.8720333 C83,29.6019132 83,15.3631159 83,1.07126178 C83.2195653,1.04782308 83.4084838,1.00925576 83.5978222,1.01010808 C88.080859,1.02033587 92.565575,0.953855196 97.0477721,1.06785251 C106.932619,1.3207774 115.344742,8.32170411 117.499882,17.9761048 C119.945328,28.9315664 113.171339,40.4433776 102.666839,43.1452205 C99.7501467,43.8961112 96.7541087,43.9836867 93.7647878,43.9971107 C90.2975031,44.0137309 86.8295885,43.9544949 83.3612542,43.925303 C83.2539905,43.925303 83.1475664,43.8944066 83,43.8720333 Z M96.2876899,31.2675525 C99.4634104,31.1345912 101.941812,29.8669836 103.483807,27.1076094 C105.321354,23.8195859 105.439533,20.4303498 103.377383,17.1938914 C101.754362,14.646957 99.225373,13.779512 96.2876899,13.7181453 C96.2876899,19.5893266 96.2876899,25.3588692 96.2876899,31.2675525 Z" id="Shape" fill="#422874"></path>
                <path d="M138.312075,0.0176235768 C138.312075,0.503303771 138.312075,0.844841099 138.312075,1.18680615 C138.312075,10.2631018 138.308469,19.3396113 138.315468,28.4161209 C138.317165,29.892409 138.097238,29.7666583 139.615726,29.7683692 C144.058998,29.7737157 148.501846,29.7702939 152.94533,29.7702939 C153.279779,29.7702939 153.61444,29.7702939 154,29.7702939 C154,34.2233247 154,38.5747712 154,43 C143.386919,43 132.7802,43 122.06829,43 C122.052171,42.7127836 122.019723,42.4116661 122.019723,42.1096932 C122.01739,28.4092773 122.023329,14.7075782 122,1.00801767 C122,0.215873484 122.209958,-0.00504577616 123.000166,8.69075362e-05 C127.784461,0.0370850025 132.568969,0.0184790241 137.355385,0.0184790241 C137.632573,0.0176235768 137.912517,0.0176235768 138.312075,0.0176235768 Z" id="Path" fill="#422874"></path>
                <path d="M72.4214331,37.5407986 C73.0210597,38.4054231 73.5704744,39.1985697 74.1619754,40.0509224 C72.5460254,41.3586239 70.8192341,42.3476889 68.9147216,42.9539595 C63.6405908,44.6341213 58.5002197,44.4330358 53.7509185,41.3011402 C49.3305994,38.3860466 47.6915227,34.0138367 48.046965,28.7212409 C48.6518003,19.7165296 56.5340361,13.2159139 65.9715924,14.0764478 C68.8501336,14.3391077 71.5117841,15.1608885 73.8065331,17.038691 C79.3654761,21.5846439 79.4031871,30.5624433 73.8865389,35.1241128 C72.1168278,36.5859655 70.0920983,37.1855619 67.8511031,36.977587 C66.4662115,36.8492712 65.3650903,36.2757254 65.0373583,34.6295803 C64.8431776,34.8071986 64.695667,34.9213049 64.5721164,35.0584478 C62.760944,37.0675803 59.972826,37.6047412 57.5816117,36.3990895 C56.3973595,35.8022919 55.6281373,34.8209775 55.3681186,33.5098312 C54.6645261,29.9501445 55.2987386,26.7222273 57.8249626,24.0555841 C59.0877621,22.722693 60.642041,22.0115738 62.4642559,21.9241641 C64.0047838,21.849672 65.3575898,22.1969428 66.2884903,23.5550233 C66.3801636,23.5397374 66.4710035,23.5455503 66.4805875,23.5203608 C66.9202026,22.3538928 67.826518,22.2499053 68.8624261,22.3442045 C69.4972636,22.40298 70.1410601,22.3553998 70.915491,22.3553998 C70.5392139,23.9576249 70.1883552,25.4569389 69.834788,26.9551765 C69.3901726,28.8340555 68.9330562,30.7094898 68.5030252,32.5920288 C68.260716,33.6504188 68.6374099,34.0756263 69.6837354,33.9341776 C70.7658969,33.7888535 71.5915815,33.1634216 72.3118418,32.3580032 C75.5697854,28.7143515 75.9806484,20.6545697 68.8690933,18.2355157 C63.7343476,16.4905501 58.8435778,17.2690566 54.9035017,21.3917396 C51.7653585,24.6741265 50.8390416,28.7690364 52.012668,33.1774158 C53.1754603,37.5448892 56.3750663,39.6661903 60.5247409,40.35212 C64.7915072,41.0563498 68.7557518,40.1641675 72.4214331,37.5407986 Z M63.2516044,24.9557322 C62.299244,24.9494887 61.5966932,25.4481118 61.0422782,26.1807605 C59.6975978,27.9614651 59.2496488,30.0117189 59.5034171,32.2184921 C59.6565532,33.5425561 60.702462,34.2078174 61.9506771,33.8545184 C63.2576465,33.4837805 64.0299939,32.5123697 64.4137716,31.2391154 C64.7783813,30.0300189 65.0690273,28.7905659 65.3013357,27.5461611 C65.5519788,26.1975535 64.5323219,24.9634829 63.2516044,24.9557322 Z" id="Shape" fill="#E5322C"></path>
                <g id="Group" transform="translate(0.000000, 49.000000)" fill="#000000">
                    <path d="M9.70283721,0.576666667 C8.80095349,0.714583333 8.62074419,0.852708333 8.62074419,1.72291667 L8.62074419,9.81541667 L8.23227907,9.81541667 L2.03065116,2.28916667 L2.03065116,7.75791667 C2.03065116,8.82104167 2.26653488,9.09729167 3.33481395,9.22145833 L3.33481395,9.56666667 L0.199255814,9.56666667 L0.199255814,9.22145833 C1.21206977,9.09708333 1.42011628,8.90395833 1.42011628,8.06166667 L1.42011628,1.57125 C0.837418605,0.77 0.518232558,0.576875 0.240697674,0.576875 L0.240697674,0.231666667 L3.1682093,0.231666667 L8.0102093,6.16979167 L8.0102093,2.04083333 C8.0102093,0.935833333 7.76051163,0.67375 6.73388372,0.577083333 L6.73388372,0.231875 L9.70283721,0.231875 L9.70283721,0.576666667 Z" id="Path"></path>
                    <path d="M18.3323721,9.56666667 L10.2162558,9.56666667 L10.2162558,9.22145833 C11.2428837,9.11104167 11.4371163,8.89 11.4371163,8.171875 L11.4371163,1.55729167 C11.4371163,0.852708333 11.1736047,0.631875 10.2162558,0.576666667 L10.2162558,0.231458333 L18.2214419,0.231458333 L18.2214419,3.00729167 L17.8744186,3.00729167 C17.5554419,1.15666667 16.8477907,0.700833333 14.5862791,0.700833333 C13.864814,0.700833333 13.6846047,0.922083333 13.6846047,1.44666667 L13.6846047,4.55375 C15.1551628,4.54020833 15.7654884,4.098125 15.932093,2.49625 L16.2927209,2.49625 L16.2927209,7.16395833 L15.932093,7.16395833 C15.7933256,5.52041667 15.1966047,5.02354167 13.6846047,5.02354167 L13.6846047,8.36541667 C13.6846047,8.959375 13.934093,9.13875 14.8359767,9.13875 C15.9180698,9.13875 16.7090233,8.93166667 17.361,8.393125 C17.8327674,8.00645833 18.0824651,7.59208333 18.4987674,6.69458333 L18.8872326,6.69458333 L18.3323721,9.56666667 Z" id="Path"></path>
                    <path d="M25.5744419,3.02083333 C25.296907,2.123125 25.0750465,1.70895833 24.6032791,1.225625 C24.1038837,0.714583333 23.521186,0.452291667 22.8968372,0.452291667 C21.9394884,0.452291667 21.3706047,1.03229167 21.3706047,1.819375 C21.3706047,2.49625 21.6897907,2.81375 22.7997209,3.39395833 C23.4795349,3.75291667 24.1455349,4.07041667 24.853186,4.45729167 C25.7410465,4.940625 26.3656047,5.838125 26.3656047,6.88770833 C26.3656047,8.62791667 24.9781395,9.82916667 22.9248837,9.82916667 C22.3143488,9.82916667 21.8011395,9.7325 21.1213256,9.49770833 C20.8161628,9.40083333 20.6633721,9.35958333 20.5524419,9.35958333 C20.3303721,9.35958333 20.2194419,9.47 20.1361395,9.82916667 L19.7338605,9.82916667 L19.7338605,6.40416667 L20.1361395,6.40416667 C20.3720233,7.38458333 20.5662558,7.86791667 20.9685349,8.37895833 C21.4957674,9.041875 22.1617674,9.37291667 22.9665349,9.37291667 C24.034814,9.37291667 24.7146279,8.76541667 24.7146279,7.81270833 C24.7146279,7.31541667 24.3954419,6.92895833 23.9236744,6.59729167 C23.4521163,6.26583333 22.8277674,5.98979167 22.2310465,5.69958333 C20.6633721,4.95395833 19.858814,4.194375 19.858814,2.79958333 C19.858814,1.04583333 21.010186,0.0239583333 22.8972558,0.0239583333 C23.4383023,0.0239583333 23.8822326,0.106666667 24.5203953,0.341458333 C24.8117442,0.438333333 24.9783488,0.479583333 25.103093,0.479583333 C25.3527907,0.479583333 25.449907,0.382708333 25.5470233,0.01 L25.9633256,0.01 L25.9633256,3.02041667 L25.5744419,3.02041667 L25.5744419,3.02083333 Z" id="Path"></path>
                    <path d="M35.2310233,9.56666667 L27.2256279,9.56666667 L27.2256279,9.22145833 C28.2384419,9.09708333 28.4188605,8.94541667 28.4188605,8.21333333 L28.4188605,1.61229167 C28.4188605,0.825208333 28.1691628,0.631666667 27.2256279,0.576458333 L27.2256279,0.23125 L32.053814,0.2175 L32.053814,0.562708333 C30.8467674,0.617916667 30.6663488,0.7975 30.6663488,1.92979167 L30.6663488,8.3375 C30.6663488,8.93145833 30.9438837,9.13854167 31.8457674,9.13854167 C32.9971395,9.13854167 33.6355116,8.89 34.2043953,8.37895833 C34.6761628,7.950625 35.0367907,7.28791667 35.4114419,6.43166667 L35.8137209,6.43166667 L35.2310233,9.56666667 Z" id="Path"></path>
                </g>
                <g id="Group" transform="translate(40.000000, 49.000000)" fill="#000000">
                    <path d="M4.9445,9.77021277 L4.9445,9.41765957 L5.38284,9.37553191 C5.83502667,9.33319149 6.01296667,9.22042553 6.01296667,8.91 C6.01296667,8.59978723 5.84866667,8.10617021 5.38284,6.99191489 L2.30040667,6.99191489 L2.12226,7.47148936 C1.95796,7.90893617 1.69756,8.50106383 1.69756,8.83957447 C1.69756,9.20638298 1.99888,9.36148936 2.80715333,9.41787234 L2.80715333,9.77042553 L0.0398866667,9.77042553 L0.0398866667,9.41787234 C0.670013333,9.30510638 0.87544,9.0512766 1.39603333,7.72553191 L4.42349333,0.0391489362 L4.80706667,0.0391489362 L7.84816667,7.4012766 C8.5467,9.10787234 8.79346,9.41808511 9.35518,9.41808511 L9.35518,9.7706383 L4.9445,9.7706383 L4.9445,9.77021277 Z M3.79357333,3.01446809 L2.50583333,6.44170213 L5.17720667,6.44170213 L3.79357333,3.01446809 Z" id="Shape"></path>
                    <path d="M14.1227733,5.17255319 C13.9173467,4.56595745 13.7666867,4.29829787 13.4790067,4.01595745 C13.1776867,3.71978723 12.8213933,3.56468085 12.45146,3.56468085 C11.9308667,3.56468085 11.5472933,3.91723404 11.5472933,4.38276596 C11.5472933,4.86234043 11.9308667,5.22893617 12.8623133,5.62404255 C14.2323067,6.21617021 14.7529,6.82276596 14.7529,7.82404255 C14.7529,9.09340426 13.88986,9.96787234 12.6432467,9.96787234 C12.2596733,9.96787234 11.5609333,9.81255319 11.16372,9.64361702 C11.0267,9.58680851 10.9171667,9.55893617 10.84876,9.55893617 C10.72538,9.55893617 10.6431267,9.65765957 10.4924667,9.95382979 L10.15002,9.95382979 L10.15002,7.62659574 L10.5335933,7.62659574 C10.8212733,8.85361702 11.4514,9.48808511 12.4103333,9.48808511 C13.02682,9.48808511 13.43788,9.12148936 13.43788,8.57148936 C13.43788,8.12 13.0679467,7.76744681 12.1226533,7.34446809 C10.73902,6.73765957 10.1773,6.08914894 10.1773,5.15829787 C10.1773,3.97382979 11.0814667,3.09914894 12.32808,3.09914894 C12.64304,3.09914894 12.9582067,3.15574468 13.3965467,3.3106383 C13.61582,3.3812766 13.7389933,3.40957447 13.8212467,3.40957447 C13.9993933,3.40957447 14.0816467,3.33893617 14.1639,3.12744681 L14.46522,3.12744681 L14.46522,5.17234043 L14.1227733,5.17234043 L14.1227733,5.17255319 Z" id="Path"></path>
                    <path d="M19.45188,5.17255319 C19.2462467,4.56595745 19.0955867,4.29829787 18.8079067,4.01595745 C18.5065867,3.71978723 18.1502933,3.56468085 17.7805667,3.56468085 C17.2599733,3.56468085 16.8764,3.91723404 16.8764,4.38276596 C16.8764,4.86234043 17.2599733,5.22893617 18.1916267,5.62404255 C19.56162,6.21617021 20.0820067,6.82276596 20.0820067,7.82404255 C20.0820067,9.09340426 19.2189667,9.96787234 17.9723533,9.96787234 C17.58878,9.96787234 16.89004,9.81255319 16.4928267,9.64361702 C16.3558067,9.58680851 16.2462733,9.55893617 16.17766,9.55893617 C16.05428,9.55893617 15.9722333,9.65765957 15.8215733,9.95382979 L15.47892,9.95382979 L15.47892,7.62659574 L15.8624933,7.62659574 C16.1501733,8.85361702 16.7803,9.48808511 17.73944,9.48808511 C18.35572,9.48808511 18.76678,9.12148936 18.76678,8.57148936 C18.76678,8.12 18.3968467,7.76744681 17.4515533,7.34446809 C16.0681267,6.73765957 15.5062,6.08914894 15.5062,5.15829787 C15.5062,3.97382979 16.4103667,3.09914894 17.65698,3.09914894 C17.97194,3.09914894 18.2871067,3.15574468 18.7254467,3.3106383 C18.9445133,3.3812766 19.0678933,3.40957447 19.1501467,3.40957447 C19.3282933,3.40957447 19.4105467,3.33893617 19.4925933,3.12744681 L19.7939133,3.12744681 L19.7939133,5.17234043 L19.45188,5.17234043 L19.45188,5.17255319 Z" id="Path"></path>
                    <path d="M26.3150733,8.1906383 C25.49316,9.53042553 24.76714,9.96787234 23.6025733,9.96787234 C21.9449,9.96787234 20.8080267,8.54340426 20.8080267,6.61106383 C20.8080267,4.50978723 21.9587467,3.0993617 23.6711867,3.0993617 C24.46582,3.0993617 25.0273333,3.35319149 25.4247533,3.80446809 C25.9315,4.38276596 26.17826,5.2712766 26.2330267,6.31489362 L22.7808667,6.31489362 C22.8629133,7.65489362 23.0685467,8.95234043 24.4110533,8.95234043 C25.00026,8.95234043 25.42496,8.68425532 25.9864733,7.99340426 L26.3150733,8.1906383 Z M24.5478667,5.49680851 C24.5478667,4.76361702 24.5478667,4.46744681 24.4246933,4.1993617 C24.2327,3.77617021 24.0684,3.53638298 23.6711867,3.53638298 C23.04106,3.53638298 22.7122533,4.10042553 22.7122533,5.79276596 L24.5478667,5.79276596 L24.5478667,5.49680851 Z" id="Shape"></path>
                    <path d="M30.9729267,8.34574468 C30.4112067,9.50234043 29.8633333,9.93957447 28.94532,9.93957447 C28.0000267,9.93957447 27.4110267,9.37553191 27.4110267,8.43021277 L27.4110267,3.88914894 L26.6850067,3.88914894 L26.6850067,3.50808511 C27.6714267,2.81723404 28.1781733,2.06957447 28.9728067,0.884893617 L29.3152533,0.884893617 L29.3152533,3.26829787 L30.6166333,3.26829787 L30.6166333,3.88914894 L29.3152533,3.88914894 L29.3152533,8.09170213 C29.3152533,8.65595745 29.4659133,8.93808511 29.8494867,8.93808511 C30.1371667,8.93808511 30.3562333,8.72659574 30.6302733,8.1906383 L30.9729267,8.34574468 Z" id="Path"></path>
                </g>
                <g id="Group" transform="translate(74.000000, 49.000000)" fill="#000000">
                    <path d="M4.41716912,0.0239130435 C7.63958088,0.0239130435 9.56189706,1.82521739 9.56189706,4.79347826 C9.56189706,6.27782609 8.95417647,7.69 7.93661765,8.59782609 C7.07450735,9.36173913 5.80191912,9.765 4.37430882,9.765 L0.00703676471,9.765 L0.00703676471,9.40478261 C0.826713235,9.37608696 1.18004412,9.04478261 1.18004412,8.35282609 L1.18004412,1.34934783 C1.18004412,0.686521739 0.911367647,0.470434783 0.00703676471,0.384130435 L0.00703676471,0.0239130435 L4.41716912,0.0239130435 L4.41716912,0.0239130435 Z M3.46976471,8.32413043 C3.46976471,8.9723913 3.65336029,9.26086957 4.28965441,9.26086957 C5.22234559,9.26086957 5.91536029,8.915 6.39577941,8.22347826 C6.83419118,7.57521739 7.10222794,6.27826087 7.10222794,5.01021739 C7.10222794,3.77108696 6.93249265,2.70456522 6.52265441,1.96956522 C5.98572794,1.01847826 5.27906618,0.514130435 4.21886029,0.514130435 C3.66764706,0.514130435 3.46955147,0.745 3.46955147,1.14847826 L3.46955147,8.32413043 L3.46976471,8.32413043 Z" id="Shape"></path>
                    <path d="M16.9116912,9.14543478 C16.3747647,9.73630435 15.9367794,9.96695652 15.3288456,9.96695652 C14.6362574,9.96695652 14.3253603,9.7076087 14.1696985,8.9723913 C13.3922426,9.69304348 12.7420882,9.96695652 11.9221985,9.96695652 C11.0178676,9.96695652 10.3675,9.50565217 10.3675,8.43956522 C10.3675,7.80521739 10.6783971,7.25782609 11.3142647,6.82543478 C11.8516176,6.46521739 12.5160588,6.20565217 14.155625,5.73021739 L14.155625,4.75043478 C14.155625,3.82826087 13.8443015,3.41021739 13.0105515,3.41021739 C12.5015588,3.41021739 12.0915074,3.5976087 12.0915074,3.94326087 C12.0915074,4.02956522 12.1198676,4.13065217 12.2471691,4.27456522 C12.4307647,4.50543478 12.5158456,4.67826087 12.5158456,4.87978261 C12.5158456,5.36978261 12.1198676,5.74456522 11.5543676,5.74456522 C10.9745809,5.74456522 10.6353235,5.36978261 10.6353235,4.76478261 C10.6353235,3.61173913 11.7381765,2.94891304 13.3355221,2.94891304 C15.0597426,2.94891304 16.1056618,3.64065217 16.1056618,4.87978261 L16.1056618,8.64086957 C16.1056618,8.88586957 16.2048162,9.04456522 16.4022721,9.04456522 C16.4730662,9.04456522 16.5157132,9.03021739 16.5579338,8.98652174 L16.6990956,8.8426087 L16.9116912,9.14543478 Z M14.1558382,6.23478261 C13.024625,6.55173913 12.4311912,7.1426087 12.4311912,7.97847826 C12.4311912,8.6126087 12.7420882,8.94391304 13.1662132,8.94391304 C13.5054706,8.94391304 13.8445147,8.81413043 14.1558382,8.3676087 L14.1558382,6.23478261 Z" id="Shape"></path>
                    <path d="M21.7740956,8.30978261 C21.1945221,9.49152174 20.6294485,9.93826087 19.6822574,9.93826087 C18.7067059,9.93826087 18.0991985,9.36195652 18.0991985,8.39608696 L18.0991985,3.75630435 L17.3501029,3.75630435 L17.3501029,3.36695652 C18.3674485,2.66108696 18.8907279,1.89717391 19.7104044,0.68673913 L20.0635221,0.68673913 L20.0635221,3.12195652 L21.4062647,3.12195652 L21.4062647,3.75630435 L20.0635221,3.75630435 L20.0635221,8.05021739 C20.0635221,8.62673913 20.2191838,8.915 20.6147353,8.915 C20.9117721,8.915 21.1380147,8.69891304 21.4205515,8.15130435 L21.7740956,8.30978261 Z" id="Path"></path>
                    <path d="M28.8132059,9.14543478 C28.2758529,9.73630435 27.8376544,9.96695652 27.2297206,9.96695652 C26.5373456,9.96695652 26.2264485,9.7076087 26.0705735,8.9723913 C25.2933309,9.69304348 24.6433897,9.96695652 23.8235,9.96695652 C22.9187426,9.96695652 22.2685882,9.50565217 22.2685882,8.43956522 C22.2685882,7.80521739 22.5794853,7.25782609 23.2155662,6.82543478 C23.7529191,6.46521739 24.4169338,6.20565217 26.0565,5.73021739 L26.0565,4.75043478 C26.0565,3.82826087 25.7456029,3.41021739 24.9118529,3.41021739 C24.4028603,3.41021739 23.9930221,3.5976087 23.9930221,3.94326087 C23.9930221,4.02956522 24.0209559,4.13065217 24.1482574,4.27456522 C24.3322794,4.50543478 24.4169338,4.67826087 24.4169338,4.87978261 C24.4169338,5.36978261 24.0211691,5.74456522 23.4558824,5.74456522 C22.8763088,5.74456522 22.5370515,5.36978261 22.5370515,4.76478261 C22.5370515,3.61173913 23.6394779,2.94891304 25.2366103,2.94891304 C26.9612574,2.94891304 28.0069632,3.64065217 28.0069632,4.87978261 L28.0069632,8.64086957 C28.0069632,8.88586957 28.1059044,9.04456522 28.304,9.04456522 C28.3745809,9.04456522 28.4168015,9.03021739 28.4592353,8.98652174 L28.6010368,8.8426087 L28.8132059,9.14543478 Z M26.0567132,6.23478261 C24.9259265,6.55173913 24.3324926,7.1426087 24.3324926,7.97847826 C24.3324926,8.6126087 24.6433897,8.94391304 25.0673015,8.94391304 C25.4065588,8.94391304 25.7458162,8.81413043 26.0567132,8.3676087 L26.0567132,6.23478261 Z" id="Shape"></path>
                </g>
                <g id="Group" transform="translate(107.000000, 49.000000)" fill="#000000">
                    <path d="M8.13036486,9.77021277 L0.033027027,9.77021277 L0.033027027,9.41765957 C1.0575,9.2906383 1.23957207,9.13574468 1.23957207,8.38808511 L1.23957207,1.64659574 C1.23957207,0.842765957 0.987211712,0.645106383 0.033027027,0.588723404 L0.033027027,0.236170213 L4.91658108,0.22212766 L4.91658108,0.574680851 C3.69563964,0.63106383 3.51293243,0.814468085 3.51293243,1.97085106 L3.51293243,8.51489362 C3.51293243,9.12148936 3.79387387,9.33297872 4.70571622,9.33297872 C5.87076577,9.33297872 6.51648649,9.07914894 7.09191892,8.55723404 C7.56890541,8.11978723 7.93410811,7.44297872 8.31286036,6.56851064 L8.71977027,6.56851064 L8.13036486,9.77021277 Z" id="Path"></path>
                    <path d="M9.35109459,9.77021277 L9.35109459,9.43170213 C9.9966036,9.27659574 10.0948378,9.17787234 10.0948378,8.52914894 L10.0948378,4.50957447 C10.0948378,3.87510638 9.95468468,3.73382979 9.33733333,3.60702128 L9.33733333,3.26829787 L12.0457613,3.26829787 L12.0457613,8.57148936 C12.0457613,9.17787234 12.228045,9.3612766 12.7194279,9.43170213 L12.7194279,9.77021277 L9.35109459,9.77021277 Z M11.0490225,2.21085106 C10.4314595,2.21085106 9.96865766,1.74531915 9.96865766,1.12489362 C9.96865766,0.504468085 10.4456441,0.024893617 11.0769685,0.024893617 C11.6665856,0.024893617 12.1435721,0.518510638 12.1435721,1.12489362 C12.1437838,1.74531915 11.6667973,2.21085106 11.0490225,2.21085106 Z" id="Shape"></path>
                    <path d="M21.1254414,9.77021277 L21.1254414,9.43170213 C21.658955,9.38957447 21.7991081,9.19191489 21.7991081,8.59957447 L21.7991081,5.38404255 C21.7991081,4.50978723 21.5888784,4.04425532 21.0553649,4.04425532 C20.8030045,4.04425532 20.5362477,4.14297872 20.2413333,4.39659574 C20.0590495,4.53787234 19.8623694,4.79170213 19.8623694,4.86212766 L19.8623694,8.5993617 C19.8623694,9.13553191 20.0167072,9.37510638 20.5080901,9.43148936 L20.5080901,9.77 L17.2521757,9.77 L17.2521757,9.43148936 C17.7712928,9.3893617 17.9116577,9.17765957 17.9116577,8.5993617 L17.9116577,5.21489362 C17.9116577,4.36851064 17.7012162,4.04425532 17.1539414,4.04425532 C16.8310811,4.04425532 15.9751306,4.58021277 15.9751306,4.91851064 L15.9751306,8.59957447 C15.9751306,9.13574468 16.1152838,9.3612766 16.6066667,9.43170213 L16.6066667,9.77021277 L13.252518,9.77021277 L13.252518,9.43170213 C13.8698694,9.31893617 14.0244189,9.13553191 14.0244189,8.55744681 L14.0244189,4.50978723 C14.0244189,3.84680851 13.8558964,3.69170213 13.2381216,3.60723404 L13.2381216,3.26851064 L15.933,3.26851064 L15.933,4.32638298 L15.9749189,4.32638298 C16.5084324,3.46617021 17.0976261,3.0993617 17.9959189,3.0993617 C18.880027,3.0993617 19.3709865,3.43787234 19.7920811,4.32638298 C20.5216396,3.42382979 21.0551532,3.0993617 21.8552117,3.0993617 C23.0060766,3.0993617 23.7496081,3.84680851 23.7496081,5.10212766 L23.7496081,8.59957447 C23.7496081,9.20617021 23.9039459,9.40340426 24.451009,9.43170213 L24.451009,9.77021277 L21.1254414,9.77021277 Z" id="Path"></path>
                    <path d="M24.9426036,9.77021277 L24.9426036,9.43170213 C25.5883243,9.27659574 25.6865586,9.17787234 25.6865586,8.52914894 L25.6865586,4.50957447 C25.6865586,3.87510638 25.5461937,3.73382979 24.9284189,3.60702128 L24.9284189,3.26829787 L27.6370586,3.26829787 L27.6370586,8.57148936 C27.6370586,9.17787234 27.8195541,9.3612766 28.3107252,9.43170213 L28.3107252,9.77021277 L24.9426036,9.77021277 Z M26.6407432,2.21085106 C26.0233919,2.21085106 25.5601667,1.74531915 25.5601667,1.12489362 C25.5601667,0.504468085 26.0373649,0.024893617 26.6689009,0.024893617 C27.2583063,0.024893617 27.7352928,0.518510638 27.7352928,1.12489362 C27.7352928,1.74531915 27.2583063,2.21085106 26.6407432,2.21085106 Z" id="Shape"></path>
                    <path d="M33.2787523,8.34574468 C32.7033198,9.50234043 32.1418604,9.93957447 31.2014369,9.93957447 C30.233491,9.93957447 29.6299009,9.37553191 29.6299009,8.43021277 L29.6299009,3.88914894 L28.8859459,3.88914894 L28.8859459,3.50808511 C29.8964459,2.81723404 30.4157748,2.06957447 31.2293829,0.884893617 L31.5806126,0.884893617 L31.5806126,3.26829787 L32.9135495,3.26829787 L32.9135495,3.88914894 L31.5806126,3.88914894 L31.5806126,8.09170213 C31.5806126,8.65595745 31.7347387,8.93808511 32.1278874,8.93808511 C32.4223784,8.93808511 32.6467928,8.72659574 32.9273108,8.1906383 L33.2787523,8.34574468 Z" id="Path"></path>
                    <path d="M39.2570676,8.1906383 C38.4148784,9.53042553 37.6711351,9.96787234 36.4783514,9.96787234 C34.7802117,9.96787234 33.6157973,8.54340426 33.6157973,6.61106383 C33.6157973,4.50978723 34.7941847,3.0993617 36.5486396,3.0993617 C37.3626712,3.0993617 37.9378919,3.35319149 38.3448018,3.80446809 C38.8639189,4.38276596 39.1167027,5.2712766 39.173018,6.31489362 L35.6363739,6.31489362 C35.7206351,7.65489362 35.9312883,8.95234043 37.3063559,8.95234043 C37.9099459,8.95234043 38.3448018,8.68425532 38.9202342,7.99340426 L39.2570676,8.1906383 Z M37.4467207,5.49680851 C37.4467207,4.76361702 37.4467207,4.46744681 37.3203288,4.1993617 C37.1236486,3.77617021 36.9551261,3.53638298 36.5484279,3.53638298 C35.9029189,3.53638298 35.5660856,4.10042553 35.5660856,5.79276596 L37.4467207,5.79276596 L37.4467207,5.49680851 L37.4467207,5.49680851 Z" id="Shape"></path>
                    <path d="M46.1192793,9.60085106 C45.2495676,9.71382979 44.8981261,9.77021277 44.2528288,9.95361702 L44.2528288,9.03659574 C43.5935586,9.74170213 43.1301216,9.96765957 42.3865901,9.96765957 C40.9130766,9.96765957 39.846473,8.58531915 39.846473,6.65319149 C39.846473,4.60829787 40.9973378,3.09914894 42.5411396,3.09914894 C43.1866486,3.09914894 43.6075315,3.32510638 44.2111216,3.97361702 L44.2111216,1.39255319 C44.2111216,0.743829787 44.0847297,0.644893617 43.1443063,0.574468085 L43.1443063,0.235957447 L46.1616216,0.235957447 L46.1616216,8.34531915 C46.1616216,8.93765957 46.3441171,9.12106383 46.9898378,9.16340426 L46.9898378,9.48765957 L46.1192793,9.60085106 Z M44.2106982,4.76361702 C44.0002568,4.22765957 43.5791622,3.8893617 43.1161486,3.8893617 C42.3021171,3.8893617 41.9229414,4.7212766 41.9229414,6.5406383 C41.9229414,8.33191489 42.2739595,9.17808511 43.0179144,9.17808511 C43.3403514,9.17808511 43.6634234,9.0087234 43.9439414,8.65638298 C44.0843063,8.47319149 44.2106982,8.26148936 44.2106982,8.19085106 L44.2106982,4.76361702 L44.2106982,4.76361702 Z" id="Shape"></path>
                </g>
            </g>
        </g>
    </g>
</svg>